<?xml version="1.0" encoding="UTF-8" standalone="yes"?>
<svg viewBox="0 0 304.015 304.011" xmlns="http://www.w3.org/2000/svg">
<defs> <marker id="ArrowEnd" markerHeight="3" markerUnits="strokeWidth" markerWidth="4" orient="auto" refX="0" refY="5" viewBox="0 0 10 10"><path d="m0,0 10,5-10,5z"/></marker><marker id="ArrowStart" markerHeight="3" markerUnits="strokeWidth" markerWidth="4" orient="auto" refX="10" refY="5" viewBox="0 0 10 10"><path d="m10,0-10,5 10,5z"/></marker></defs>
<g transform="matrix(1.35328,0,0,1.35328,-53.20783,-52.19286)">
<path d="m70.9764,72.8434h71.2606c0,0-2.011,90.7996 42.813,98.2686 0,0 13.793,4.024 27.586,2.301 0,0 25.285-5.172 25.285,21.266v18.386h-98.844l-13.793-16.664h-62.6396v-28.164l8.332-22.41v-72.9836zm64.2996,13.269c-2.73,0-4.945,2.219-4.945,4.945s2.215,4.946 4.945,4.946 4.95-2.215 4.95-4.946-2.215-4.945-4.95-4.945zm2.512,19.5236c-2.73,0-4.945,2.214-4.945,4.945s2.215,4.949 4.945,4.949 4.945-2.215 4.945-4.949-2.211-4.945-4.945-4.945zm4.641,22.043c-2.731,0-4.949,2.214-4.949,4.945s2.218,4.941 4.949,4.941 4.945-2.211 4.945-4.941-2.215-4.945-4.945-4.945zm7.73,20.101c-2.73,0-4.945,2.215-4.945,4.945s2.215,4.95 4.945,4.95 4.945-2.215 4.945-4.95-2.21-4.945-4.945-4.945zm17.012,17.012c-2.731,0-4.945,2.215-4.945,4.945s2.214,4.945 4.945,4.945 4.945-2.21 4.945-4.945c0-2.73-2.211-4.945-4.945-4.945" fill="#AC7731" fill-rule="evenodd"/>
<path d="m62.0694,230.018h58.9066v-20.976h-58.9066v20.976z" fill="#553D1E" fill-rule="evenodd"/>
<path d="m147.983,219.39h90.227l3.734,11.777-83.043-.574-10.918-11.203" fill="#553D1E" fill-rule="evenodd"/>
<path d="m29.6204,265.39h-26.99998" fill="none" stroke="#000" stroke-width=".5"/>
<path d="m38.6204,274.39v27" fill="none" stroke="#000" stroke-width=".5"/>
<path d="m29.6204,38.6204h-26.99998" fill="none" stroke="#000" stroke-width=".5"/>
<path d="m38.6204,29.6204v-26.99998" fill="none" stroke="#000" stroke-width=".5"/>
<path d="m274.394,38.6204h27" fill="none" stroke="#000" stroke-width=".5"/>
<path d="m265.394,29.6204v-26.99998" fill="none" stroke="#000" stroke-width=".5"/>
<path d="m274.394,265.39h27" fill="none" stroke="#000" stroke-width=".5"/>
<path d="m265.394,274.39v27" fill="none" stroke="#000" stroke-width=".5"/>
</g>
</svg>
