<?xml version="1.0" ?><!DOCTYPE svg  PUBLIC '-//W3C//DTD SVG 1.1//EN'  'http://www.w3.org/Graphics/SVG/1.1/DTD/svg11.dtd'><svg enable-background="new 0 0 153 153" height="153px" id="Layer_1" version="1.1" viewBox="0 0 153 153" width="153px" xml:space="preserve" xmlns="http://www.w3.org/2000/svg" xmlns:xlink="http://www.w3.org/1999/xlink"><g><path d="M152.342,122.451c0,16.789-13.611,30.4-30.4,30.4H30.742c-16.789,0-30.4-13.611-30.4-30.4V31.25   c0-16.79,13.611-30.399,30.4-30.399h91.199c16.789,0,30.4,13.609,30.4,30.399V122.451z" fill="#FCB748"/><g><g><circle cx="61.008" cy="40.439" fill="#FFFFFF" r="19.549"/><path d="M74.186,132.811c-8.049-15.217-18.307-15.217-26.355,0c-7.229-20.549-7.229-45.23,0-65.78     c8.049,15.217,18.307,15.217,26.355,0C81.414,87.58,81.414,112.262,74.186,132.811z" fill="#FFFFFF"/></g><g><circle cx="98.175" cy="52.546" fill="#FFFFFF" r="13.049"/><path d="M106.971,114.203c-5.372-10.156-12.22-10.156-17.592,0c-4.825-13.717-4.825-30.191,0-43.908     c5.372,10.158,12.22,10.158,17.592,0C111.796,84.012,111.796,100.486,106.971,114.203z" fill="#FFFFFF"/></g></g></g></svg>