<?xml version="1.0" ?><!DOCTYPE svg  PUBLIC '-//W3C//DTD SVG 1.1//EN'  'http://www.w3.org/Graphics/SVG/1.1/DTD/svg11.dtd'><svg height="140px" id="Layer_1" style="enable-background:new 0 0 140 140;" version="1.1" viewBox="0 0 140 140" width="140px" xml:space="preserve" xmlns="http://www.w3.org/2000/svg" xmlns:xlink="http://www.w3.org/1999/xlink"><g><path d="M70,130c-33.084,0-60-26.917-60-60s26.916-60,60-60s60,26.917,60,60S103.084,130,70,130z" style="fill:#F2F2F2;"/><circle cx="70" cy="70" r="58.064" style="fill:#EE9A94;"/><g><path d="M77.635,38.116v-1.351c0-3.48-1.813-5.765-5.162-5.765h-4.945c-3.349,0-5.893,2.285-5.893,5.765    v1.351c-7,0.521-14,7.366-14,15.433v34.84c0,4.803,3.526,8.709,7.795,8.709c0.535,0,0.995-0.434,0.995-0.969    s-0.44-0.968-0.976-0.968c-3.203,0-5.814-3.039-5.814-6.774V53.548c0-7.018,5-12.98,12-13.497v4.788c0,0.535,0.466,0.968,1,0.968    c0.535,0,1-0.433,1-0.968v-8.074c0-2.448,1.587-3.765,3.893-3.765h4.945c2.306,0,3.162,1.317,3.162,3.765v8.074    c0,0.535,0.465,0.968,1,0.968s1-0.433,1-0.968v-4.788c7,0.517,12,6.479,12,13.497v34.839c0,3.735-2.261,6.774-5.462,6.774    c-0.535,0-0.796,0.433-0.796,0.968s0.206,0.969,0.741,0.969c4.269,0,7.517-3.908,7.517-8.709v-34.84    C91.635,45.481,85.635,38.636,77.635,38.116z" style="fill:#555152;"/><path d="M77.635,38.116v-1.351c0-3.48-1.813-5.765-5.162-5.765h-2.838v2h2.838    c2.307,0,3.162,1.317,3.162,3.765v8.074c0,0.535,0.465,0.968,1,0.968s1-0.433,1-0.968v-4.788c7,0.517,12,6.479,12,13.497v34.839    c0,3.735-2.261,6.774-5.462,6.774c-0.535,0-0.796,0.433-0.796,0.968s0.206,0.969,0.741,0.969c4.269,0,7.517-3.908,7.517-8.709    v-34.84C91.635,45.481,85.635,38.636,77.635,38.116z" style="fill:#2E2633;"/><path d="M54.635,73.293c0,11.094,6.57,13.158,15,13.158c8.426,0,15-2.064,15-13.158V59.07    c0-11.094-6.574-17.135-15-17.135c-8.428,0-15,5.397-15,16.491V73.293z" style="fill:#FFF9D5;"/><path d="M69.635,41.936c9,0,15,5.397,15,16.491v14.867c0,11.095-6,13.158-15,13.158V41.936z" style="fill:#F2EDCA;"/><path d="M69.648,79.677c2.824,0,5.109-2.211,5.109-4.932c0-2.728-2.554-5.79-5.109-8.363    c-2.558,2.573-5.112,5.636-5.112,8.363C64.535,77.466,66.824,79.677,69.648,79.677z" style="fill:#FFCF47;"/><path d="M69.635,79.677c3,0,5.109-2.211,5.109-4.932c0-2.728-2.109-5.79-5.109-8.363V79.677z" style="fill:#E6BB40;"/><path d="M70.635,82.581c0-0.535-0.465-0.968-1-0.968s-1,0.433-1,0.968V85h2V82.581z" style="fill:#E29B2F;"/><path d="M69.712,85h-6.486c-0.534,0-1.591,0.917-1.591,1.452V93h-6.15c-0.534,0-0.85,0.659-0.85,1.193    v13.548c0,0.534,0.314,1.258,0.85,1.258h14.229L69.712,85L69.712,85z" style="fill:#C4482E;"/><path d="M69.712,85h6.486c0.533,0,1.591,0.917,1.591,1.452V93h6.149c0.535,0,0.851,0.659,0.851,1.193    v13.548c0,0.534-0.314,1.258-0.851,1.258H69.711L69.712,85L69.712,85z" style="fill:#A63D27;"/></g></g></svg>