<?xml version="1.0" ?><!DOCTYPE svg  PUBLIC '-//W3C//DTD SVG 1.1//EN'  'http://www.w3.org/Graphics/SVG/1.1/DTD/svg11.dtd'><svg height="21.407px" id="Capa_1" style="enable-background:new 0 0 14.442 21.407;" version="1.1" viewBox="0 0 14.442 21.407" width="14.442px" xml:space="preserve" xmlns="http://www.w3.org/2000/svg" xmlns:xlink="http://www.w3.org/1999/xlink"><g><path d="M12.167,10.778c-0.083-1.13-0.543-2.143-1.243-2.929C9.806,6.589,9.345,5.281,9.345,2.904   C8.668,3.675,8.407,4.399,8.182,5.133C8.213,6.231,8.298,7.33,8.527,8.404C8.676,9.1,8.854,9.79,9.099,10.457   c0.247,0.676,0.631,1.347,0.759,2.061c0.24,1.343-0.36,2.374-1.091,3.366c0.204-0.067,0.393-0.149,0.558-0.249   C10.53,14.913,12.326,12.893,12.167,10.778z" style="fill:#231F20;"/><path d="M8.212,16.019c0.305-0.392,0.603-0.788,0.857-1.213c0.767-1.288,0.41-2.332-0.101-3.645   C8.157,9.075,7.867,6.944,7.805,4.74C7.453,3.013,6.779,1.413,5.848,0c0.064,0.331,0.108,1.074,0.136,1.416   c0.161,2.172-0.265,3.72-1.663,5.619c0.603,1.927,1.624,3.528,2.076,5.519c0.269,1.185,0.327,2.354,0.243,3.519   C7.164,16.128,7.712,16.11,8.212,16.019z" style="fill:#231F20;"/><path d="M5.885,12.071c-0.5-1.666-2.238-5.45-2.782-7.083c0,1.3-0.131,2.388-0.257,2.911   c-0.301,1.255-0.581,2.558-0.581,3.619c0,1.844,1.74,3.485,2.819,4.104c0.327,0.188,0.745,0.321,1.198,0.4   C6.376,14.704,6.281,13.386,5.885,12.071z" style="fill:#231F20;"/><polygon points="13.828,21.407 13.647,21.354 0.182,17.5 0,17.449 0.052,17.267 0.563,15.483 0.614,15.302    0.795,15.354 14.262,19.207 14.442,19.26 14.39,19.44 13.88,21.226  " style="fill:#231F20;"/><polygon points="13.699,15.534 7.905,17.193 11.279,18.158 14.209,17.318  " style="fill:#231F20;"/><polygon points="0.233,19.389 0.744,21.173 6.538,19.515 3.164,18.55  " style="fill:#231F20;"/></g><g/><g/><g/><g/><g/><g/><g/><g/><g/><g/><g/><g/><g/><g/><g/></svg>