<?xml version="1.0" ?><svg height="20px" version="1.1" viewBox="0 0 20 20" width="20px" xmlns="http://www.w3.org/2000/svg" xmlns:sketch="http://www.bohemiancoding.com/sketch/ns" xmlns:xlink="http://www.w3.org/1999/xlink"><title/><desc/><defs/><g fill="none" fill-rule="evenodd" id="Page-1" stroke="none" stroke-width="1"><g fill="#000000" id="Core" transform="translate(-212.000000, -212.000000)"><g id="explore" transform="translate(212.000000, 212.000000)"><path d="M10,8.9 C9.4,8.9 8.9,9.4 8.9,10 C8.9,10.6 9.4,11.1 10,11.1 C10.6,11.1 11.1,10.6 11.1,10 C11.1,9.4 10.6,8.9 10,8.9 L10,8.9 Z M10,0 C4.5,0 0,4.5 0,10 C0,15.5 4.5,20 10,20 C15.5,20 20,15.5 20,10 C20,4.5 15.5,0 10,0 L10,0 Z M12.2,12.2 L4,16 L7.8,7.8 L16,4 L12.2,12.2 L12.2,12.2 Z" id="Shape"/></g></g></g></svg>